<svg width="487" height="299" viewBox="0 0 487 299" fill="none" xmlns="http://www.w3.org/2000/svg">
<path d="M202.2 65C205.533 65 208.267 65.6667 210.4 67C212.667 68.2 214.533 69.8667 216 72C217.467 74 218.667 76.3333 219.6 79C220.533 81.6667 221.333 84.4 222 87.2C227.333 108.8 231.733 126.6 235.2 140.6C238.667 154.6 241.4 165.933 243.4 174.6C245.4 183.133 246.8 189.467 247.6 193.6C248.4 197.733 248.8 200.6 248.8 202.2C248.8 204.067 248.333 205.333 247.4 206C246.6 206.667 245.267 207 243.4 207H233.2C227.467 207 222.867 206.333 219.4 205C216.067 203.533 213.467 201.467 211.6 198.8C209.867 196.133 208.6 192.933 207.8 189.2C207 185.333 206.333 181 205.8 176.2H171L164.4 203.8C163.733 205.933 162.2 207 159.8 207H149.2C147.067 207 144.867 206.8 142.6 206.4C140.333 205.867 138.267 205.067 136.4 204C134.667 202.933 133.2 201.6 132 200C130.8 198.267 130.2 196.2 130.2 193.8C130.2 190.867 131.133 186.067 133 179.4C134.867 172.733 137.2 165.2 140 156.8C142.933 148.267 146.133 139.4 149.6 130.2C153.2 120.867 156.667 112.067 160 103.8C163.333 95.5333 166.333 88.2667 169 82C171.8 75.7333 173.933 71.3333 175.4 68.8C176.467 66.9333 177.4 65.8667 178.2 65.6C179.133 65.2 180.8 65 183.2 65H202.2ZM178.2 147.2H201.2L192.8 94.4L178.2 147.2ZM318.844 93L311.244 204C311.11 206 310.377 207 309.044 207H298.044C290.577 207 285.244 205.533 282.044 202.6C278.844 199.667 277.244 195.467 277.244 190C277.244 188 277.31 185 277.444 181C277.71 177 278.044 172.333 278.444 167C278.844 161.533 279.244 155.667 279.644 149.4C280.177 143 280.71 136.6 281.244 130.2C281.777 123.667 282.244 117.2 282.644 110.8C283.177 104.4 283.644 98.4667 284.044 93H252.044C250.577 93 249.844 92.0667 249.844 90.2L250.444 79C250.577 77.2667 250.844 75.6 251.244 74C251.777 72.2667 252.577 70.7333 253.644 69.4C254.71 68.0667 256.044 67 257.644 66.2C259.377 65.4 261.444 65 263.844 65H353.244C354.044 65 354.777 65.2 355.444 65.6C356.11 66 356.444 66.7333 356.444 67.8L355.644 79.6C355.377 83.6 354.244 86.8667 352.244 89.4C350.377 91.8 346.444 93 340.444 93H318.844Z" fill="#0A4E51"/>
<path d="M111.329 63.6016L85.4962 15.3604L41.1822 64.9632L89.9945 88.6817L111.329 63.6016Z" fill="#0A4E51"/>
<path d="M88.6856 195.16L39.0898 218.286L86.1665 265.275L112.548 217.849L88.6856 195.16Z" fill="#0A4E51"/>
<path d="M75.2133 123.021L25.4554 100.246L20.1905 166.552L73.4043 155.898L75.2133 123.021Z" fill="#0A4E51"/>
<path d="M376.002 56.6016L401.835 8.36039L446.149 57.9632L397.336 81.6817L376.002 56.6016Z" fill="#0A4E51"/>
<path d="M398.645 188.16L448.241 211.286L401.164 258.275L374.783 210.849L398.645 188.16Z" fill="#0A4E51"/>
<path d="M412.118 116.021L461.875 93.2463L467.14 159.552L413.927 148.898L412.118 116.021Z" fill="#0A4E51"/>
</svg>
