<?xml version="1.0" standalone="no"?>
<!DOCTYPE svg PUBLIC "-//W3C//DTD SVG 20010904//EN"
 "http://www.w3.org/TR/2001/REC-SVG-20010904/DTD/svg10.dtd">
<svg version="1.0" xmlns="http://www.w3.org/2000/svg"
 width="487.000000pt" height="487.000000pt" viewBox="0 0 487.000000 487.000000"
 preserveAspectRatio="xMidYMid meet">
<metadata>
Created by potrace 1.11, written by Peter Selinger 2001-2013
</metadata>
<g transform="translate(0.000000,487.000000) scale(0.100000,-0.100000)"
fill="#000000" stroke="none">
<path d="M3986 3788 c-15 -29 -55 -105 -89 -168 -33 -63 -78 -146 -99 -184
l-38 -69 24 -31 c13 -17 38 -47 55 -66 17 -19 53 -61 79 -92 26 -32 52 -58 58
-58 7 0 118 52 249 115 l237 115 -38 43 c-37 41 -89 99 -109 121 -81 91 -174
195 -188 211 -11 11 -37 41 -60 68 -22 26 -43 47 -47 47 -3 0 -18 -24 -34 -52z"/>
<path d="M839 3761 c-2 -5 -22 -29 -44 -53 -22 -24 -96 -106 -165 -183 -146
-164 -190 -213 -207 -230 -10 -10 33 -35 213 -124 124 -61 236 -114 248 -117
15 -3 28 2 41 18 11 13 42 51 70 83 27 33 64 76 82 95 18 19 33 39 33 44 0 5
-15 37 -34 70 -33 60 -80 147 -169 316 -44 81 -61 102 -68 81z"/>
<path d="M1770 3260 c-59 -59 -352 -808 -446 -1142 -20 -72 -26 -145 -13 -169
18 -35 56 -65 99 -78 41 -12 199 -15 216 -3 11 7 21 31 28 69 5 21 46 191 52
214 4 14 27 16 179 16 121 0 175 -3 175 -11 4 -98 36 -196 80 -237 47 -45 90
-56 224 -58 95 -2 106 0 115 18 19 35 4 112 -145 720 -14 57 -27 111 -29 120
-16 84 -108 419 -124 454 -12 26 -38 59 -58 74 -35 27 -40 28 -184 31 -139 3
-149 2 -169 -18z m168 -313 c-1 -10 8 -89 17 -138 2 -9 6 -32 9 -50 3 -19 14
-91 26 -161 11 -70 20 -130 20 -133 0 -3 -51 -5 -114 -5 l-113 0 58 213 c81
293 82 296 91 291 5 -3 8 -11 6 -17z"/>
<path d="M2574 3264 c-49 -24 -66 -64 -71 -170 l-5 -94 171 0 172 0 -6 -67
c-5 -71 -9 -113 -20 -273 -4 -52 -9 -113 -11 -135 -2 -22 -6 -76 -9 -120 -4
-44 -8 -102 -11 -130 -2 -27 -6 -104 -9 -170 -4 -110 -3 -123 18 -159 35 -63
74 -80 195 -85 62 -2 108 1 114 7 5 5 12 36 13 68 2 33 6 91 9 129 3 39 8 106
11 150 3 44 7 109 10 145 2 36 7 106 10 155 3 50 8 110 10 135 2 25 7 95 11
155 4 61 8 121 9 135 2 14 3 32 4 42 1 14 20 17 150 20 132 3 151 5 171 23 29
26 40 56 47 130 3 33 6 69 8 80 6 45 8 45 -489 45 -399 0 -476 -3 -502 -16z"/>
<path d="M4560 2971 c-30 -14 -86 -41 -125 -58 -95 -43 -199 -90 -262 -119
l-53 -25 5 -87 c8 -143 16 -236 19 -239 4 -4 -14 0 251 -53 116 -23 217 -43
225 -45 8 -2 22 -5 30 -7 17 -3 18 56 5 207 -3 44 -8 103 -10 130 -3 28 -7 75
-10 105 -2 30 -7 91 -10 135 -3 44 -7 80 -8 81 -1 1 -27 -10 -57 -25z"/>
<path d="M249 2878 c-1 -24 -2 -56 -4 -73 -1 -16 -5 -70 -9 -120 -4 -49 -9
-110 -11 -135 -2 -25 -7 -81 -10 -125 -4 -44 -8 -97 -10 -119 l-3 -38 45 7
c25 3 52 8 61 10 10 2 49 10 87 18 39 9 87 18 109 21 21 4 41 8 45 10 3 2 26
7 51 10 25 3 65 12 90 19 38 11 44 16 46 42 14 213 15 305 5 305 -10 0 -65 24
-311 137 -130 60 -160 73 -170 73 -5 0 -10 -19 -11 -42z"/>
<path d="M3862 1931 l-114 -108 29 -54 c26 -47 77 -140 158 -284 12 -22 32
-58 45 -80 12 -22 25 -43 29 -47 3 -4 112 98 241 227 223 223 233 234 209 244
-13 5 -71 32 -129 59 -58 27 -150 71 -204 96 -55 26 -111 49 -125 52 -22 3
-44 -13 -139 -105z"/>
<path d="M815 1946 c-69 -33 -170 -80 -338 -158 l-87 -41 236 -235 236 -234
98 176 c55 97 114 204 132 237 l33 60 -91 87 c-50 48 -104 99 -120 114 l-29
27 -70 -33z"/>
</g>
</svg>
